<?xml version="1.0" standalone="no"?>
<!DOCTYPE svg PUBLIC "-//W3C//DTD SVG 20010904//EN"
 "http://www.w3.org/TR/2001/REC-SVG-20010904/DTD/svg10.dtd">
<svg version="1.0" xmlns="http://www.w3.org/2000/svg"
 width="245.000000pt" height="245.000000pt" viewBox="0 0 245.000000 245.000000"
 preserveAspectRatio="xMidYMid meet">
<metadata>
Created by potrace 1.14, written by Peter Selinger 2001-2017
</metadata>
<g transform="translate(0.000000,245.000000) scale(0.100000,-0.100000)"
fill="#000000" stroke="none">
<path d="M335 2383 c-15 -14 -17 -37 -14 -172 1 -86 -1 -164 -5 -174 -5 -10
-6 -20 -3 -23 3 -4 1485 -7 1815 -4 22 0 32 5 32 15 0 8 -4 15 -10 15 -6 0
-10 63 -10 168 0 117 -4 172 -12 180 -9 9 -221 12 -894 12 -814 0 -884 -1
-899 -17z m950 -77 c24 -10 35 -22 35 -35 0 -11 9 -25 20 -31 47 -25 9 -129
-57 -157 -74 -30 -163 27 -163 105 0 48 32 100 73 117 41 18 50 18 92 1z
m-235 -116 c0 -20 -5 -20 -292 -18 -270 3 -293 4 -296 21 -3 16 16 17 292 17
290 0 296 0 296 -20z m385 0 c0 -22 -39 -19 -43 3 -3 15 1 18 20 15 12 -2 23
-10 23 -18z m110 0 c0 -23 -69 -20 -73 3 -3 16 2 18 35 15 26 -2 38 -8 38 -18z
m423 3 c-3 -16 -21 -18 -178 -20 -170 -3 -210 3 -196 26 5 7 67 11 192 11 171
0 185 -1 182 -17z"/>
<path d="M360 1964 c0 -4 12 -26 28 -50 l27 -44 600 0 c808 -1 799 -1 803 -22
3 -17 -35 -18 -691 -18 l-694 0 -6 -107 c-4 -58 -7 -132 -7 -165 0 -48 -3 -58
-17 -58 -47 -1 -47 -13 6 -147 53 -135 59 -157 39 -151 -7 2 -36 62 -64 133
-28 70 -59 132 -69 138 -29 16 -49 -17 -115 -188 -34 -88 -64 -165 -66 -171
-6 -14 25 -46 40 -41 6 2 21 22 34 45 l23 42 74 0 73 0 16 -40 c12 -31 21 -40
40 -40 29 0 42 30 27 59 -15 27 7 40 26 16 19 -27 16 -72 -7 -95 -22 -22 -65
-27 -76 -9 -5 8 -10 6 -16 -5 -6 -11 -6 -21 0 -29 6 -8 7 -70 1 -172 -4 -88
-8 -208 -9 -267 l0 -108 155 0 c131 0 155 -2 155 -15 0 -13 -25 -15 -164 -15
l-164 0 -37 -46 c-20 -25 -35 -47 -33 -50 3 -2 429 -3 947 -2 l942 3 -36 42
-36 42 -157 3 c-140 3 -157 5 -160 20 -3 17 9 18 149 18 l152 0 -6 98 c-4 53
-9 170 -13 260 -8 201 -8 201 113 204 l78 1 -76 6 c-94 7 -119 25 -119 83 0
27 4 38 15 38 10 0 15 -10 15 -28 0 -51 26 -63 126 -60 l89 3 0 30 0 30 -70 5
-70 5 0 45 0 45 54 5 c97 9 95 66 -2 72 l-52 3 0 45 0 45 70 5 70 5 0 30 0 30
-90 3 c-49 1 -97 -2 -105 -8 -12 -7 -16 -38 -20 -132 -6 -157 -24 -163 -28
-10 -2 87 1 121 13 144 16 33 7 58 -21 58 -8 0 -15 11 -15 28 -1 15 -4 81 -8
147 l-6 120 -83 3 c-72 2 -83 5 -80 20 3 14 16 17 87 17 l84 0 33 45 c19 25
34 48 34 53 0 4 -394 7 -875 7 -481 0 -875 -3 -875 -6z m1523 -265 c23 -29 21
-124 -3 -124 -11 0 -16 14 -20 50 l-5 50 -622 3 -623 2 -2 -37 c-2 -52 -2 -56
-11 -71 -16 -24 -27 0 -27 57 0 57 11 84 40 94 8 3 294 4 635 2 l619 -3 19
-23z m-1102 -212 c19 -12 45 -44 58 -70 22 -45 23 -53 12 -95 -15 -54 -15 -61
-5 -159 8 -90 -8 -123 -59 -123 -55 0 -77 30 -77 104 0 34 -4 46 -15 46 -12 0
-15 -13 -15 -55 0 -42 -5 -60 -20 -75 -48 -48 -124 -4 -118 69 4 50 32 49 36
-1 3 -41 21 -61 45 -52 12 4 17 23 19 77 l3 72 37 3 c47 4 68 -24 68 -89 0
-81 50 -92 63 -14 3 20 0 59 -8 87 -11 43 -11 55 0 72 24 37 27 88 8 126 -24
46 -73 70 -145 70 -91 0 -88 5 -88 -135 0 -80 -4 -126 -11 -131 -21 -13 -29
21 -29 132 0 98 3 115 21 138 19 24 26 26 103 26 69 0 89 -4 117 -23z m368 7
c16 -12 20 -19 12 -27 -8 -8 -14 -8 -23 1 -17 17 -84 15 -124 -4 -59 -28 -74
-66 -74 -186 0 -93 3 -109 23 -139 63 -94 187 -87 242 14 16 29 18 41 9 54
-18 29 -47 22 -65 -15 -8 -19 -22 -38 -30 -43 -22 -14 -62 -11 -87 7 -20 14
-22 23 -22 111 0 86 3 99 22 120 37 40 90 25 114 -33 15 -37 43 -45 64 -19 10
12 11 24 2 52 -6 21 -9 39 -6 42 10 10 35 -27 40 -61 5 -28 2 -40 -15 -57 -38
-38 -84 -25 -110 31 -17 36 -44 47 -66 28 -19 -16 -21 -170 -3 -188 21 -21 48
-13 60 16 27 62 69 79 116 46 36 -25 26 -102 -21 -152 -78 -84 -221 -69 -276
28 -18 33 -21 54 -21 158 l0 120 33 40 c17 23 46 48 62 56 40 20 114 20 144 0z
m365 -6 c15 -14 44 -71 70 -138 48 -119 53 -140 35 -140 -11 0 -27 35 -74 160
-32 86 -57 115 -85 100 -11 -6 -42 -71 -80 -167 -75 -193 -79 -208 -52 -222
22 -12 39 3 60 52 11 26 14 27 87 27 l75 0 18 -37 c13 -29 23 -38 42 -38 23 0
25 3 22 43 -3 51 20 59 37 12 18 -52 -14 -100 -67 -100 -22 0 -57 35 -67 68
-5 19 -13 22 -60 22 -47 0 -55 -3 -60 -22 -11 -35 -46 -68 -72 -68 -25 0 -73
40 -73 61 0 16 84 226 126 316 45 96 72 112 118 71z m391 10 c29 -13 28 -35
-1 -30 -10 2 -44 6 -75 9 -88 8 -89 6 -89 -202 l0 -175 25 -16 c32 -21 118
-13 154 14 54 40 66 68 69 163 3 75 1 96 -17 131 -19 40 -20 58 -1 58 5 0 19
-18 30 -40 16 -31 20 -59 20 -135 0 -97 -10 -135 -49 -179 -40 -45 -140 -74
-200 -57 -58 17 -60 27 -61 232 0 174 1 188 21 213 18 23 27 26 84 26 35 0 76
-5 90 -12z m-1163 -105 c21 -19 24 -53 4 -53 -7 0 -16 9 -19 20 -3 12 -14 20
-26 20 -31 0 -30 -55 1 -64 32 -8 9 -29 -28 -24 -26 3 -29 7 -32 47 -2 24 -1
50 2 57 8 20 75 18 98 -3z m1131 5 c39 -20 46 -40 47 -125 0 -79 -1 -82 -31
-107 -17 -14 -41 -26 -55 -26 -21 0 -24 4 -24 40 0 29 4 40 15 40 8 0 15 -9
15 -20 0 -26 26 -26 40 -1 5 11 10 45 10 76 0 61 -12 95 -35 95 -10 0 -15 -15
-17 -52 -2 -30 -8 -53 -15 -56 -10 -3 -13 15 -13 66 0 86 11 98 63 70z m-1547
-73 c16 -40 10 -63 -12 -44 -11 9 -15 8 -20 -5 -8 -22 2 -31 34 -31 18 0 28
-6 30 -18 3 -16 -2 -17 -55 -11 -32 4 -59 8 -61 9 -6 5 51 135 60 135 5 0 16
-16 24 -35z m1173 4 c15 -45 14 -51 -11 -47 -17 2 -23 -2 -23 -17 0 -11 7 -21
15 -21 8 -1 23 -2 33 -3 9 0 17 -8 17 -16 0 -12 -13 -15 -55 -15 -48 0 -55 2
-55 20 0 26 47 130 58 130 6 0 15 -14 21 -31z m-923 -524 l-8 -185 46 0 c39 0
46 -3 46 -20 0 -17 -7 -20 -49 -20 -73 0 -81 13 -81 123 0 51 3 136 7 190 5
88 8 97 26 97 19 0 20 -5 13 -185z m1357 -11 c7 -209 4 -217 -76 -212 -38 2
-52 7 -52 18 0 10 14 17 45 20 l45 5 -3 75 c-1 41 -5 117 -8 168 -5 68 -3 96
6 108 28 33 37 -6 43 -182z m-1201 149 c9 -11 16 -39 16 -70 1 -43 -3 -55 -21
-68 -50 -35 -94 -11 -103 57 -9 63 12 98 60 98 19 0 39 -7 48 -17z m144 -53
c15 -38 30 -70 33 -70 4 0 13 30 21 67 11 51 20 69 33 71 12 3 20 -4 24 -17 7
-27 20 -27 28 0 4 11 14 19 23 17 18 -4 43 -87 40 -133 -4 -39 -32 -41 -36 -2
-3 25 -22 40 -22 17 0 -5 -9 -10 -20 -10 -11 0 -20 5 -20 11 0 5 -4 7 -10 4
-5 -3 -10 -14 -10 -25 0 -22 -23 -33 -38 -18 -8 8 -16 7 -28 -3 -15 -12 -19
-11 -32 9 -19 28 -45 28 -65 0 -12 -19 -18 -21 -28 -10 -23 22 34 162 65 162
8 0 26 -30 42 -70z m319 50 c0 -9 -11 -16 -27 -18 -34 -4 -37 -19 -6 -24 31
-4 36 -35 7 -40 -33 -5 -35 -26 -2 -30 44 -5 36 -32 -11 -36 -21 -2 -43 1 -48
6 -12 12 -15 133 -4 150 11 19 91 12 91 -8z m168 8 c22 -18 20 -153 -3 -153
-8 0 -17 11 -20 24 -8 35 -28 37 -32 4 -2 -17 -9 -28 -18 -28 -12 0 -16 17
-18 83 l-3 82 39 0 c21 0 46 -6 55 -12z m136 3 c8 -5 17 -26 21 -47 l7 -39 8
30 c11 43 34 65 66 65 42 0 59 -24 59 -82 0 -59 -19 -88 -58 -88 -31 0 -62 26
-62 52 0 10 -4 18 -10 18 -5 0 -10 -9 -10 -19 0 -22 -35 -51 -61 -51 -9 0 -27
8 -40 18 -29 24 -32 101 -4 132 19 21 60 26 84 11z m241 -11 c11 -21 11 -21
30 2 25 31 36 18 53 -64 16 -74 8 -107 -18 -74 -8 11 -15 26 -15 34 0 13 -2
13 -17 0 -21 -18 -43 -13 -44 10 0 10 -6 2 -13 -17 -14 -39 -33 -51 -42 -27
-5 13 5 73 23 139 6 23 30 22 43 -3z m-901 -256 c24 -20 31 -34 31 -61 0 -41
-15 -73 -35 -73 -18 0 -19 14 -4 41 14 26 3 56 -27 76 -31 20 -70 5 -84 -33
-13 -33 2 -62 39 -75 26 -9 28 -14 29 -70 1 -33 4 -65 7 -69 3 -5 21 -12 40
-16 19 -3 35 -11 35 -18 0 -7 -29 -11 -90 -11 -63 0 -90 4 -90 12 0 7 16 15
35 19 35 6 35 6 35 60 0 49 -3 55 -29 68 -57 30 -65 116 -14 156 36 28 85 26
122 -6z m902 13 c36 -28 50 -88 29 -128 -11 -20 -40 -27 -40 -9 0 6 5 19 12
29 16 26 -7 79 -38 87 -38 10 -74 -20 -74 -60 0 -36 12 -52 45 -58 17 -3 21
-13 25 -73 l5 -69 38 -9 c69 -17 43 -32 -53 -32 -63 0 -90 4 -90 12 0 7 16 15
35 19 35 6 35 7 35 59 0 46 -3 55 -27 71 -43 27 -53 46 -49 88 4 52 42 86 94
86 20 0 44 -6 53 -13z m-173 -99 c3 -17 -18 -18 -332 -18 -330 0 -336 0 -336
20 0 20 5 20 332 18 308 -3 333 -4 336 -20z m22 -142 c0 -23 -20 -25 -206 -20
-99 2 -257 4 -351 4 -147 0 -173 2 -173 15 0 13 47 15 365 15 305 0 365 -2
365 -14z m-515 -71 c0 -16 -8 -21 -39 -23 -43 -4 -62 8 -52 33 4 12 16 15 48
13 35 -2 43 -7 43 -23z m204 12 c16 -20 -6 -37 -50 -37 -40 0 -54 11 -45 35 7
19 79 20 95 2z m195 7 c37 -14 10 -44 -39 -44 -33 0 -55 10 -55 25 0 22 57 33
94 19z"/>
<path d="M670 881 c0 -22 4 -42 9 -45 4 -3 6 6 3 19 -3 20 0 25 17 25 19 0 20
3 11 20 -19 35 -40 25 -40 -19z"/>
<path d="M1312 909 c2 -6 8 -10 13 -10 5 0 11 4 13 10 2 6 -4 11 -13 11 -9 0
-15 -5 -13 -11z"/>
<path d="M1444 906 c-10 -26 0 -71 16 -71 10 0 16 13 18 43 2 33 0 42 -13 42
-8 0 -18 -6 -21 -14z"/>
<path d="M1584 906 c-10 -26 0 -71 16 -71 10 0 16 13 18 43 2 33 0 42 -13 42
-8 0 -18 -6 -21 -14z"/>
<path d="M2257 1383 c-48 -3 -58 -7 -55 -21 2 -12 15 -18 43 -20 22 -2 46 -9
54 -15 12 -10 14 -9 9 4 -4 9 0 26 8 38 8 11 12 20 7 19 -4 -1 -34 -3 -66 -5z"/>
<path d="M2301 1230 c-14 -12 -38 -20 -62 -20 -32 0 -39 -3 -39 -20 0 -18 7
-20 56 -20 33 0 53 4 49 10 -3 5 1 23 10 40 18 35 18 36 -14 10z"/>
<path d="M330 1125 c0 -2 9 -9 20 -15 16 -9 18 -8 14 5 -5 13 -34 22 -34 10z"/>
<path d="M263 302 c-24 -4 -31 -26 -12 -38 8 -5 10 -38 6 -109 -5 -90 -4 -105
12 -119 16 -14 111 -16 968 -16 748 0 953 3 961 12 5 7 12 70 13 141 3 108 2
127 -11 127 -400 3 -1922 4 -1937 2z m1786 -149 c24 -20 -82 -23 -815 -21
-524 2 -799 6 -799 13 0 16 1596 25 1614 8z"/>
</g>
</svg>
